<svg xmlns="http://www.w3.org/2000/svg" width="13.856" height="15.87" viewBox="0 0 13.856 15.87"><g transform="translate(-8.848 -2.426)"><path d="M22.406,16.991H19.9a.5.5,0,0,1-.509-.509V14.325a.5.5,0,0,1,.509-.509h2.523a.5.5,0,0,1,.509.509v2.157A.536.536,0,0,1,22.406,16.991Zm-2.4-.61h2.319V14.427H20.005Z" transform="translate(-8.776 -9.478)" fill="#a0bf2e"></path><path d="M26.454,38.188H19.7a.3.3,0,0,1,0-.61h6.755a.3.3,0,1,1,0,.61Z" transform="translate(-8.776 -29.251)" fill="#a0bf2e"></path><path d="M26.454,46.309H19.7a.3.3,0,1,1,0-.61h6.755a.3.3,0,1,1,0,.61Z" transform="translate(-8.776 -36.009)" fill="#a0bf2e"></path><path d="M26.454,54.551H19.7a.3.3,0,1,1,0-.61h6.755a.3.3,0,1,1,0,.61Z" transform="translate(-8.776 -42.868)" fill="#a0bf2e"></path><path d="M23.748,62.672H19.7a.3.3,0,1,1,0-.61h4.049a.3.3,0,1,1,0,.61Z" transform="translate(-8.776 -49.626)" fill="#a0bf2e"></path><path d="M21.89,5.275h-.651v-.61a.816.816,0,0,0-.814-.814h-.651V3.24a.816.816,0,0,0-.814-.814h-9.3a.816.816,0,0,0-.814.814V14.634a.816.816,0,0,0,.814.814h.651v.61a.816.816,0,0,0,.814.814h.651v.61a.816.816,0,0,0,.814.814h9.3a.816.816,0,0,0,.814-.814V6.088a.816.816,0,0,0-.814-.814ZM11.229,15.143h7.732a.5.5,0,0,0,.509-.509V4.745h.854V15.956H11.229Zm-1.465-.61V3.321h9.1V14.532Zm2.93,2.035h7.732a.5.5,0,0,0,.509-.509V6.19h.854V17.4H12.693Z" fill="#a0bf2e"></path></g></svg>