<svg xmlns="http://www.w3.org/2000/svg" width="31.244" height="8.352" viewBox="0 0 31.244 8.352"><g transform="translate(-27.535 -43.18)"><path d="M27.535,49H57.749v1.225H27.535Z" transform="translate(0 -2.257)" fill="#fff"/><path d="M79.216,51.531a.619.619,0,0,1-.5-.254.609.609,0,0,1,.136-.854l3.9-2.827a.319.319,0,0,0,.158-.225.325.325,0,0,0-.155-.227l-3.906-2.858a.614.614,0,0,1,.725-.99l3.906,2.858a1.45,1.45,0,0,1,0,2.432l-3.9,2.827a.619.619,0,0,1-.361.117Z" transform="translate(-25.361)" fill="#fff"/></g></svg>