<svg xmlns="http://www.w3.org/2000/svg" width="46.633" height="12.465" viewBox="0 0 46.633 12.465"><g transform="translate(-27.535 -43.18)"><path d="M27.535,49H72.629v1.828H27.535Z" transform="translate(0 -0.502)" fill="#69b8bc"/><path d="M79.519,55.645a.923.923,0,0,1-.743-.378.91.91,0,0,1,.2-1.274L84.8,49.773a.476.476,0,0,0,.236-.336.486.486,0,0,0-.232-.339l-5.829-4.266a.916.916,0,0,1,1.082-1.478l5.829,4.266a2.165,2.165,0,0,1-.007,3.63L80.058,55.47a.924.924,0,0,1-.539.175Z" transform="translate(-12.701 0)" fill="#69b8bc"/></g></svg>