<svg xmlns="http://www.w3.org/2000/svg" width="19.234" height="16.237" viewBox="0 0 19.234 16.237"><g transform="translate(-9.85 -16.183)"><path d="M13.064,32.269h12.8A3.07,3.07,0,0,0,28.934,29.2a.4.4,0,0,0-.395-.395h-.773V20.234a1.578,1.578,0,0,0-1.578-1.578H25.66V16.731a.386.386,0,0,0-.024-.15.022.022,0,0,1-.008-.016.46.46,0,0,0-.079-.115l-.019-.019a.557.557,0,0,0-.1-.059l-.024-.012a.415.415,0,0,0-.142-.028H13.66a.349.349,0,0,0-.142.031l-.024.012a.475.475,0,0,0-.106.071l-.012.012a.418.418,0,0,0-.087.13.424.424,0,0,0-.024.138V18.66H12.74a1.578,1.578,0,0,0-1.578,1.578v8.576h-.767a.4.4,0,0,0-.395.395,3.067,3.067,0,0,0,3.065,3.061Zm.994-13.21V17.607L17.746,20.9l-3.688,2.983Zm4.284,2.374.856.765a.4.4,0,0,0,.529,0l.856-.765,3.566,2.884H14.777Zm2.836-.533,3.693-3.294v6.276Zm3.056-3.778-4.773,4.256L14.7,17.122ZM11.956,20.234a.791.791,0,0,1,.789-.789h.524v5.266c0,.012.008.024.008.035a.5.5,0,0,0,.019.1.224.224,0,0,0,.028.051.459.459,0,0,0,.031.059c0,.008.012.008.019.016a.346.346,0,0,0,.075.059.327.327,0,0,0,.055.035.366.366,0,0,0,.11.024c.016,0,.031.012.043.012h11.6c.012,0,.024-.008.035-.008a.412.412,0,0,0,.122-.028c.019-.008.031-.024.047-.031a.49.49,0,0,0,.083-.063s.012-.008.016-.016a.239.239,0,0,0,.028-.055.367.367,0,0,0,.031-.059.353.353,0,0,0,.019-.091c0-.016.008-.028.008-.043l0-5.265h.529a.791.791,0,0,1,.789.789v8.576H11.956ZM28.109,29.6a2.276,2.276,0,0,1-2.24,1.881h-12.8a2.275,2.275,0,0,1-2.24-1.881Z" fill="#a0bf2e"></path><path d="M13.064,32.419A3.217,3.217,0,0,1,9.85,29.208a.545.545,0,0,1,.545-.545h.617V20.238A1.73,1.73,0,0,1,12.74,18.51h.374V16.731a.576.576,0,0,1,.032-.189l0-.005a.558.558,0,0,1,.115-.177l.025-.025a.628.628,0,0,1,.14-.094l0,0,.024-.012a.5.5,0,0,1,.2-.044H25.268a.556.556,0,0,1,.193.037l.01,0,.021.01a.619.619,0,0,1,.112.067l.058.052a.623.623,0,0,1,.1.14l0,0,.012.029a.534.534,0,0,1,.035.205v1.775h.378a1.73,1.73,0,0,1,1.728,1.728V28.66h.623a.545.545,0,0,1,.545.545,3.218,3.218,0,0,1-3.215,3.215Zm-.029-.3H25.869A2.918,2.918,0,0,0,28.784,29.2a.245.245,0,0,0-.245-.245h-.923V20.234a1.43,1.43,0,0,0-1.428-1.428H25.51V16.731a.281.281,0,0,0-.008-.079.167.167,0,0,1-.016-.035.356.356,0,0,0-.046-.063l-.009-.008a.359.359,0,0,0-.056-.035l-.022-.011h0a.258.258,0,0,0-.084-.016H13.66a.2.2,0,0,0-.081.018l-.021.011a.322.322,0,0,0-.068.045l-.005.005a.29.29,0,0,0-.055.078.27.27,0,0,0-.015.087V18.81H12.74a1.43,1.43,0,0,0-1.428,1.428v8.726h-.917a.245.245,0,0,0-.245.245A2.916,2.916,0,0,0,13.036,32.119Zm12.833-.49h-12.8a2.416,2.416,0,0,1-2.388-2.006l-.03-.176H28.287l-.031.176A2.418,2.418,0,0,1,25.869,31.629ZM11.01,29.748a2.117,2.117,0,0,0,2.054,1.581h12.8a2.118,2.118,0,0,0,2.054-1.581Zm16.113-.789H11.806V20.234a.94.94,0,0,1,.939-.939h.674v5.4a.189.189,0,0,1,.008.042.375.375,0,0,0,.011.063l.006.012.008.012a.307.307,0,0,1,.02.039l.009.008a.2.2,0,0,0,.043.035l0,0,.03.02.006,0h0a.253.253,0,0,0,.061.011h0a.2.2,0,0,1,.054.012H25.244a.188.188,0,0,1,.044-.008.273.273,0,0,0,.066-.013.259.259,0,0,1,.039-.026.334.334,0,0,0,.054-.041h0l0-.013.013-.028a.3.3,0,0,0,.019-.034.2.2,0,0,0,.01-.049A.213.213,0,0,1,25.5,24.7l0-5.4h.679a.94.94,0,0,1,.939.939Zm-15.017-.3H26.823V20.234a.639.639,0,0,0-.639-.639h-.379l0,5.115a.211.211,0,0,1-.009.061.494.494,0,0,1-.028.127.46.46,0,0,1-.037.074.345.345,0,0,1-.037.071.187.187,0,0,1-.041.045.65.65,0,0,1-.1.078l-.005,0a.261.261,0,0,1-.062.038.56.56,0,0,1-.156.038.192.192,0,0,1-.06.01h-11.6a.194.194,0,0,1-.073-.014.486.486,0,0,1-.141-.033.291.291,0,0,1-.068-.04l-.008-.006a.474.474,0,0,1-.093-.071.168.168,0,0,1-.049-.048.3.3,0,0,1-.032-.059l0,0a.388.388,0,0,1-.038-.071l-.005-.014a.626.626,0,0,1-.025-.122.192.192,0,0,1-.01-.06V19.6h-.374a.639.639,0,0,0-.639.639Zm12.467-4.193H14.353l3.995-3.23.951.851a.253.253,0,0,0,.328,0l.952-.851Zm-9.373-.3h8.525L20.588,21.63l-.761.68a.553.553,0,0,1-.729,0l-.761-.68Zm-1.292.031V17.271l4.069,3.635Zm.3-6.256v5.627l3.306-2.674ZM25.021,24.2l-4.074-3.29,4.074-3.635Zm-3.611-3.3,3.311,2.673V17.941Zm-1.949.685-5.157-4.607H24.629Zm-4.371-4.307,4.371,3.905,4.38-3.905Z" fill="#a0bf2e"></path><path d="M21.993,75.5a.383.383,0,0,0,.276-.115.248.248,0,0,0,.051-.059.653.653,0,0,0,.035-.067c.008-.024.016-.047.024-.075a.516.516,0,0,0,.008-.075.4.4,0,0,0-.118-.28.408.408,0,0,0-.557,0,.393.393,0,0,0,.28.671Z" transform="translate(-8.853 -44.567)" fill="#a0bf2e"></path><path d="M21.993,75.648a.544.544,0,0,1-.383-.93.547.547,0,0,1,.928.389.581.581,0,0,1-.009.09l-.006.028c-.009.03-.017.055-.026.081l-.006.014a.786.786,0,0,1-.044.084.412.412,0,0,1-.076.09.533.533,0,0,1-.379.155Zm0-.781a.243.243,0,0,0-.172.066.237.237,0,0,0-.071.174.234.234,0,0,0,.068.168l.006.006a.245.245,0,0,0,.338,0l.014-.013a.114.114,0,0,0,.02-.025c0-.008.012-.022.021-.042s.011-.033.017-.052a.352.352,0,0,0,0-.041.246.246,0,0,0-.074-.174A.243.243,0,0,0,21.991,74.867Z" transform="translate(-8.853 -44.567)" fill="#a0bf2e"></path><path d="M28.278,75.5a.391.391,0,0,0,.28-.115.4.4,0,0,0,0-.557.408.408,0,0,0-.557,0,.386.386,0,0,0,0,.557A.379.379,0,0,0,28.278,75.5Z" transform="translate(-13.651 -44.567)" fill="#a0bf2e"></path><path d="M28.278,75.648a.548.548,0,0,1-.545-.541.539.539,0,0,1,.545-.54.547.547,0,0,1,.386.154.543.543,0,0,1-.386.927Zm0-.781a.236.236,0,0,0-.169.064l0,0a.24.24,0,0,0-.072.171.236.236,0,0,0,.072.168l.006.006a.228.228,0,0,0,.167.067.241.241,0,0,0,.174-.071.245.245,0,0,0,0-.342A.247.247,0,0,0,28.278,74.867Z" transform="translate(-13.651 -44.567)" fill="#a0bf2e"></path><path d="M34.579,75.5a.4.4,0,0,0,.28-.115.405.405,0,0,0,.115-.276.414.414,0,0,0-.031-.153.386.386,0,0,0-.083-.127.413.413,0,0,0-.56,0,.4.4,0,0,0-.083.127.418.418,0,0,0-.031.153.4.4,0,0,0,.115.276.394.394,0,0,0,.28.115Z" transform="translate(-18.461 -44.567)" fill="#a0bf2e"></path><path d="M34.579,75.648a.541.541,0,0,1-.545-.541.559.559,0,0,1,.041-.207l0,0a.524.524,0,0,1,.5-.328.556.556,0,0,1,.386.152.536.536,0,0,1,.117.177.571.571,0,0,1,.043.211.542.542,0,0,1-.545.541Zm-.224-.639a.264.264,0,0,0-.021.1.25.25,0,0,0,.071.17.245.245,0,0,0,.174.071.247.247,0,0,0,.174-.071.254.254,0,0,0,.071-.17.265.265,0,0,0-.022-.1.231.231,0,0,0-.049-.074.253.253,0,0,0-.175-.066.225.225,0,0,0-.223.142Z" transform="translate(-18.461 -44.567)" fill="#a0bf2e"></path></g></svg>