<svg xmlns="http://www.w3.org/2000/svg" width="16.178" height="15.937" viewBox="0 0 16.178 15.937"><path d="M2.419,14.385a.475.475,0,0,1-.336-.812L4.74,10.916a.475.475,0,1,1,.672.672L2.755,14.245A.474.474,0,0,1,2.419,14.385ZM6.3,7.229a.479.479,0,0,1,.079.064l.384.384,1.269-1.27L6.309,4.684a.475.475,0,0,1-.121-.466,2.277,2.277,0,0,0-.594-2.2h0a2.313,2.313,0,0,0-1.912-.658L4.969,2.646A1.395,1.395,0,0,1,3,4.618L1.709,3.329A2.241,2.241,0,0,0,2.364,5.24a2.276,2.276,0,0,0,2.2.6.475.475,0,0,1,.467.121Zm1.175,1.16.483.483,4.6-4.378a.48.48,0,0,1,.177-.107l.894-.3.918-.918L13.4,2.022l-.918.918-.3.893a.474.474,0,0,1-.123.195ZM10.6,11.541a.474.474,0,0,1,.121.467,2.28,2.28,0,0,0,.594,2.2,2.315,2.315,0,0,0,1.912.659l-1.286-1.288a1.4,1.4,0,0,1,0-1.972,1.4,1.4,0,0,1,1.972,0l1.288,1.29a2.243,2.243,0,0,0-.656-1.912,2.192,2.192,0,0,0-2.2-.6.475.475,0,0,1-.467-.121L9.93,8.309,8.656,9.57Zm-9.3,3.48a1.533,1.533,0,0,0,1.985,0l2.686-2.686a1.772,1.772,0,0,1,.453-1.421,1.739,1.739,0,0,1,1.3-.538.96.96,0,0,1,.169.032l.112-.111-.31-.31A.464.464,0,0,1,7.586,9.9L6.43,8.742a.474.474,0,0,1-.09-.126L6.034,8.31l-.113.113a.96.96,0,0,1,.032.169,1.735,1.735,0,0,1-.538,1.3,1.763,1.763,0,0,1-1.42.454L1.306,13.038a1.531,1.531,0,0,0,0,1.983Zm1.031,1.307a2.606,2.606,0,0,1-1.675-.606.494.494,0,0,1-.058-.058,2.505,2.505,0,0,1,.024-3.3l2.9-2.9a.475.475,0,0,1,.615-.049.934.934,0,0,0,.568-.166.344.344,0,0,1,.045-.046.863.863,0,0,0,.247-.491.476.476,0,0,1-.027-.7l.381-.381-.815-.815a3.2,3.2,0,0,1-2.85-.9,3.225,3.225,0,0,1-.646-3.691.476.476,0,0,1,.767-.135L3.67,3.947a.456.456,0,0,0,.626,0,.445.445,0,0,0,0-.629L2.444,1.465A.476.476,0,0,1,2.579.7a3.266,3.266,0,0,1,3.689.647,3.21,3.21,0,0,1,.9,2.853L8.791,5.823l2.526-2.4.3-.887a.475.475,0,0,1,.114-.186l1.333-1.333a.49.49,0,0,1,.672,0l1.823,1.823a.474.474,0,0,1,0,.672L14.224,4.841a.474.474,0,0,1-.186.115l-.9.3-2.519,2.4L12.366,9.4a3.132,3.132,0,0,1,2.858.911A3.221,3.221,0,0,1,15.863,14a.475.475,0,0,1-.767.134l-1.851-1.853a.455.455,0,0,0-.626,0,.445.445,0,0,0,0,.628L14.47,14.76a.475.475,0,0,1-.135.767,3.267,3.267,0,0,1-3.689-.648,3.213,3.213,0,0,1-.9-2.853L8.689,10.968l-.379.379a.47.47,0,0,1-.4.135.475.475,0,0,1-.3-.162.859.859,0,0,0-.491.247.5.5,0,0,1-.052.051.9.9,0,0,0-.153.575.459.459,0,0,1-.056.6l-2.9,2.9,0,0a2.3,2.3,0,0,1-1.621.63Z" transform="translate(0 -0.392)" fill="#a0bf2e" fill-rule="evenodd"></path></svg>