<svg xmlns="http://www.w3.org/2000/svg" width="15.75" height="15.75" viewBox="0 0 15.75 15.75"><g transform="translate(-3.125 -3.125)"><path d="M17.3,11.525a2.092,2.092,0,0,0-3.675-1.375v-5.5A1.524,1.524,0,0,0,12.1,3.125H4.648A1.524,1.524,0,0,0,3.125,4.648v12.7a1.524,1.524,0,0,0,1.523,1.523h7.928a.55.55,0,0,0,.189-.037,1.78,1.78,0,0,0,.336.037h4.2A1.58,1.58,0,0,0,18.875,17.3V13.1A1.58,1.58,0,0,0,17.3,11.525Zm-2.1-1.05a1.053,1.053,0,0,1,1.05,1.05h-2.1A1.053,1.053,0,0,1,15.2,10.475ZM11.525,13.1v4.2a1.577,1.577,0,0,0,.094.525H4.648a.471.471,0,0,1-.472-.472V4.648a.471.471,0,0,1,.472-.472H12.1a.471.471,0,0,1,.473.472v6.972A1.58,1.58,0,0,0,11.525,13.1Z" fill="#a0bf2e"></path><path d="M26.575,32.825a.526.526,0,0,1,.525.525.525.525,0,0,0,1.05,0,1.572,1.572,0,0,0-1.05-1.479v-.1a.525.525,0,0,0-1.05,0v.1a1.571,1.571,0,0,0,.525,3.054.525.525,0,1,1-.525.525.525.525,0,0,0-1.05,0,1.572,1.572,0,0,0,1.05,1.479v.1a.525.525,0,1,0,1.05,0v-.1a1.571,1.571,0,0,0-.525-3.054.525.525,0,0,1,0-1.05Z" transform="translate(-18.2 -23.4)" fill="#a0bf2e"></path><path d="M29.7,81.25H28.65a.525.525,0,0,0,0,1.05H29.7a.525.525,0,0,0,0-1.05Z" transform="translate(-20.8 -65)" fill="#a0bf2e"></path><path d="M32.3,13.024a.525.525,0,1,1-1.05,0,.525.525,0,1,1,1.05,0" transform="translate(-23.4 -7.799)" fill="#a0bf2e"></path></g></svg>