<svg xmlns="http://www.w3.org/2000/svg" width="16.577" height="16.577" viewBox="0 0 16.577 16.577"><g transform="translate(-2.924 -2.925)"><path d="M17.954,5.821H16.606V4.473a1.349,1.349,0,0,0-1.348-1.348H7.169A1.348,1.348,0,0,0,5.821,4.473V5.821H4.473A1.348,1.348,0,0,0,3.124,7.169v8.089a1.349,1.349,0,0,0,1.348,1.348H8.118l-.863,2.157H6.09a.27.27,0,1,0,0,.539H16.336a.27.27,0,0,0,0-.539H15.171l-.863-2.157h3.645A1.349,1.349,0,0,0,19.3,15.258V7.169a1.349,1.349,0,0,0-1.348-1.348ZM6.36,8.517h4.583v4.314H7.169a.809.809,0,0,1-.809-.809Zm5.123,0h4.583v3.5a.809.809,0,0,1-.809.809H11.483Zm4.583-4.044v3.5H11.483V3.664h3.775a.809.809,0,0,1,.809.809Zm-8.9-.809h3.775V7.978H6.36v-3.5a.809.809,0,0,1,.809-.809Zm7.42,15.1H7.837L8.7,16.606h5.026Zm4.174-3.5a.809.809,0,0,1-.809.809H4.473a.809.809,0,0,1-.809-.809V7.169a.809.809,0,0,1,.809-.809H5.821v5.662a1.349,1.349,0,0,0,1.348,1.348h8.089a1.349,1.349,0,0,0,1.348-1.348V6.36h1.348a.809.809,0,0,1,.809.809Z" fill="#a0bf2e"></path><path d="M7.169,2.925h8.089a1.549,1.549,0,0,1,1.548,1.548V5.621h1.148A1.549,1.549,0,0,1,19.5,7.169v8.089a1.549,1.549,0,0,1-1.548,1.548H14.6l.7,1.757h1.029a.47.47,0,1,1,0,.939H6.09a.47.47,0,0,1,0-.939H7.12l.7-1.757H4.473a1.549,1.549,0,0,1-1.548-1.548V7.169A1.55,1.55,0,0,1,4.473,5.621H5.621V4.473A1.55,1.55,0,0,1,7.169,2.925ZM17.954,16.406A1.149,1.149,0,0,0,19.1,15.258V7.169a1.149,1.149,0,0,0-1.148-1.148H16.406V4.473a1.149,1.149,0,0,0-1.148-1.148H7.169A1.149,1.149,0,0,0,6.021,4.473V6.021H4.473A1.149,1.149,0,0,0,3.324,7.169v8.089a1.149,1.149,0,0,0,1.148,1.148H8.413L7.39,18.963H6.09a.07.07,0,0,0,0,.139H16.336a.07.07,0,1,0,0-.139h-1.3l-1.023-2.557ZM11.283,3.464h3.975a1.01,1.01,0,0,1,1.009,1.009V8.178H11.283Zm4.583,1a.61.61,0,0,0-.609-.6H11.683V7.778h4.183Zm-8.7-1h3.975V8.178H6.16v-3.7a1.01,1.01,0,0,1,.609-.926l-.083-.083Zm3.575.4H7.169a.61.61,0,0,0-.609.609v3.3h4.183ZM4.473,6.16H6.021v5.862a1.149,1.149,0,0,0,1.148,1.148h8.089a1.149,1.149,0,0,0,1.148-1.148V6.16h1.548a1.01,1.01,0,0,1,1.009,1.009v8.089a1.01,1.01,0,0,1-1.009,1.009H4.473a1.01,1.01,0,0,1-1.009-1.009V7.169A1.01,1.01,0,0,1,4.473,6.16Zm1.148.4H4.473a.61.61,0,0,0-.609.609v8.089a.61.61,0,0,0,.609.609H17.954a.61.61,0,0,0,.609-.609V7.169a.61.61,0,0,0-.609-.609H16.806v5.462a1.549,1.549,0,0,1-1.548,1.548H7.169a1.549,1.549,0,0,1-1.548-1.548ZM6.16,8.317h4.983v4.714H7.169A1.01,1.01,0,0,1,6.16,12.022Zm4.583.4H6.56v3.305a.61.61,0,0,0,.609.609h3.575Zm.539-.4h4.983v3.7a1.01,1.01,0,0,1-1.009,1.009H11.283Zm4.583.4H11.683v3.914h3.575a.61.61,0,0,0,.609-.609Zm-7.3,7.689h5.3l1.023,2.557H7.542Zm5.026.4H8.836l-.7,1.757h6.16Z" fill="#a0bf2e"></path><path d="M29.051,14.429h.464v.464a.27.27,0,0,0,.539,0v-.464h.464a.27.27,0,1,0,0-.539h-.464v-.464a.27.27,0,1,0-.539,0v.464h-.464a.27.27,0,0,0,0,.539Z" transform="translate(-21.23 -8.3)" fill="#a0bf2e"></path><path d="M29.784,15.362a.47.47,0,0,1-.47-.47v-.264h-.264a.47.47,0,0,1,0-.939h.264v-.264a.47.47,0,0,1,.939,0v.264h.264a.47.47,0,1,1,0,.939h-.264v.264A.47.47,0,0,1,29.784,15.362Zm-.733-1.273a.07.07,0,0,0,0,.139h.664v.664a.07.07,0,0,0,.139,0v-.664h.664a.07.07,0,1,0,0-.139h-.664v-.664a.07.07,0,0,0-.139,0v.664Z" transform="translate(-21.23 -8.3)" fill="#a0bf2e"></path><path d="M29.051,45.633h1.467a.27.27,0,1,0,0-.539H29.051a.27.27,0,0,0-.27.27.275.275,0,0,0,.27.27Z" transform="translate(-21.23 -34.727)" fill="#a0bf2e"></path><path d="M30.518,45.833H29.051a.47.47,0,0,1,0-.939h1.467a.47.47,0,1,1,0,.939Zm-1.467-.539a.07.07,0,0,0-.07.07.075.075,0,0,0,.073.07h1.463a.07.07,0,1,0,0-.139Z" transform="translate(-21.23 -34.727)" fill="#a0bf2e"></path><path d="M64.113,49.216a.286.286,0,0,0-.27.291.27.27,0,0,0,.539,0V49.47a.257.257,0,0,0-.08-.185.254.254,0,0,0-.19-.068Z" transform="translate(-50.241 -38.137)" fill="#a0bf2e"></path><path d="M64.13,49.016a.452.452,0,0,1,.31.123.461.461,0,0,1,.143.332v.038a.47.47,0,0,1-.939,0,.483.483,0,0,1,.458-.491Z" transform="translate(-50.241 -38.137)" fill="#a0bf2e"></path><path d="M64.113,41.52a.269.269,0,0,0,.27-.27v-.038a.248.248,0,0,0-.27-.248.28.28,0,0,0-.27.286.269.269,0,0,0,.27.27Z" transform="translate(-50.241 -31.309)" fill="#a0bf2e"></path><path d="M64.113,41.72h0a.469.469,0,0,1-.47-.47.482.482,0,0,1,.457-.485.448.448,0,0,1,.482.448v.038a.469.469,0,0,1-.47.47Z" transform="translate(-50.241 -31.309)" fill="#a0bf2e"></path><path d="M61.33,45.094H59.863a.27.27,0,1,0,0,.539H61.33a.275.275,0,0,0,.27-.27.269.269,0,0,0-.27-.27Z" transform="translate(-46.725 -34.727)" fill="#a0bf2e"></path><path d="M59.863,44.894H61.33a.47.47,0,0,1,0,.939h-1.47a.47.47,0,1,1,0-.939Zm1.467.539a.075.075,0,0,0,.07-.073.069.069,0,0,0-.02-.046.07.07,0,0,0-.049-.02H59.863a.07.07,0,1,0,0,.139Z" transform="translate(-46.725 -34.727)" fill="#a0bf2e"></path><path d="M61.245,15.191l-.324.329a.259.259,0,0,0,0,.377.253.253,0,0,0,.189.081A.265.265,0,0,0,61.3,15.9l.329-.324.324.324a.273.273,0,0,0,.194.081.27.27,0,0,0,.189-.458l-.324-.329.324-.324a.271.271,0,0,0-.383-.383l-.324.324-.329-.324a.259.259,0,0,0-.377,0,.27.27,0,0,0,0,.383Z" transform="translate(-47.757 -9.332)" fill="#a0bf2e"></path><path d="M61.108,16.178a.455.455,0,0,1-.329-.14.459.459,0,0,1,0-.66l.182-.185-.183-.183a.469.469,0,1,1,.661-.665l.185.182.183-.183a.471.471,0,0,1,.666.666l-.183.183.184.188a.47.47,0,0,1-.329.8.477.477,0,0,1-.339-.14l-.182-.182-.186.183a.468.468,0,0,1-.329.14Zm0-1.575a.06.06,0,0,0-.044.019l0,0a.07.07,0,0,0,0,.1l.465.465-.468.475a.061.061,0,0,0-.019.044.06.06,0,0,0,.019.044l.009.009a.053.053,0,0,0,.039.017v0a.065.065,0,0,0,.046-.019l0,0,.47-.463.464.464a.074.074,0,0,0,.053.022.07.07,0,0,0,.046-.118l-.463-.47.464-.464a.071.071,0,1,0-.1-.1l-.464.464-.475-.468A.061.061,0,0,0,61.111,14.6Z" transform="translate(-47.757 -9.332)" fill="#a0bf2e"></path></g></svg>